<svg width="8" height="20" viewBox="0 0 8 20" fill="none" xmlns="http://www.w3.org/2000/svg">
<g opacity="0.6" clip-path="url(#clip0_842_834)">
<rect width="8" height="20" fill="white" fill-opacity="0.01"/>
<path fill-rule="evenodd" clip-rule="evenodd" d="M0.292007 8.293C0.1052 8.48189 0.000427246 8.73684 0.000427246 9.0025C0.000427246 9.26816 0.1052 9.52311 0.292007 9.712L3.23101 12.677C3.44901 12.892 3.73101 12.999 4.01001 12.999C4.28901 12.999 4.56601 12.892 4.77901 12.677L7.70901 9.722C7.89557 9.53298 8.00018 9.27809 8.00018 9.0125C8.00018 8.74692 7.89557 8.49202 7.70901 8.303C7.61718 8.20982 7.50773 8.13582 7.38705 8.08531C7.26636 8.0348 7.13684 8.00879 7.00601 8.00879C6.87518 8.00879 6.74565 8.0348 6.62497 8.08531C6.50428 8.13582 6.39484 8.20982 6.30301 8.303L4.00501 10.62L1.69801 8.293C1.60597 8.20018 1.49646 8.12651 1.3758 8.07623C1.25514 8.02595 1.12572 8.00006 0.995008 8.00006C0.864292 8.00006 0.73487 8.02595 0.614211 8.07623C0.493552 8.12651 0.384044 8.20018 0.292007 8.293Z" fill="#344563"/>
</g>
<defs>
<clipPath id="clip0_842_834">
<rect width="8" height="20" fill="white"/>
</clipPath>
</defs>
</svg>
