<svg width="24" height="25" viewBox="0 0 24 25" fill="none" xmlns="http://www.w3.org/2000/svg">
<mask id="mask0_887_1094" style="mask-type:alpha" maskUnits="userSpaceOnUse" x="0" y="0" width="24" height="25">
<rect y="0.103729" width="24" height="24" fill="#D9D9D9"/>
</mask>
<g mask="url(#mask0_887_1094)">
<path d="M0 18.1037V16.5287C0 15.8121 0.366667 15.2287 1.1 14.7787C1.83333 14.3287 2.8 14.1037 4 14.1037C4.21667 14.1037 4.425 14.1079 4.625 14.1162C4.825 14.1246 5.01667 14.1454 5.2 14.1787C4.96667 14.5287 4.79167 14.8954 4.675 15.2787C4.55833 15.6621 4.5 16.0621 4.5 16.4787V18.1037H0ZM6 18.1037V16.4787C6 15.9454 6.14583 15.4579 6.4375 15.0162C6.72917 14.5746 7.14167 14.1871 7.675 13.8537C8.20833 13.5204 8.84583 13.2704 9.5875 13.1037C10.3292 12.9371 11.1333 12.8537 12 12.8537C12.8833 12.8537 13.6958 12.9371 14.4375 13.1037C15.1792 13.2704 15.8167 13.5204 16.35 13.8537C16.8833 14.1871 17.2917 14.5746 17.575 15.0162C17.8583 15.4579 18 15.9454 18 16.4787V18.1037H6ZM19.5 18.1037V16.4787C19.5 16.0454 19.4458 15.6371 19.3375 15.2537C19.2292 14.8704 19.0667 14.5121 18.85 14.1787C19.0333 14.1454 19.2208 14.1246 19.4125 14.1162C19.6042 14.1079 19.8 14.1037 20 14.1037C21.2 14.1037 22.1667 14.3246 22.9 14.7662C23.6333 15.2079 24 15.7954 24 16.5287V18.1037H19.5ZM8.125 16.1037H15.9C15.7333 15.7704 15.2708 15.4787 14.5125 15.2287C13.7542 14.9787 12.9167 14.8537 12 14.8537C11.0833 14.8537 10.2458 14.9787 9.4875 15.2287C8.72917 15.4787 8.275 15.7704 8.125 16.1037ZM4 13.1037C3.45 13.1037 2.97917 12.9079 2.5875 12.5162C2.19583 12.1246 2 11.6537 2 11.1037C2 10.5371 2.19583 10.0621 2.5875 9.67873C2.97917 9.2954 3.45 9.10373 4 9.10373C4.56667 9.10373 5.04167 9.2954 5.425 9.67873C5.80833 10.0621 6 10.5371 6 11.1037C6 11.6537 5.80833 12.1246 5.425 12.5162C5.04167 12.9079 4.56667 13.1037 4 13.1037ZM20 13.1037C19.45 13.1037 18.9792 12.9079 18.5875 12.5162C18.1958 12.1246 18 11.6537 18 11.1037C18 10.5371 18.1958 10.0621 18.5875 9.67873C18.9792 9.2954 19.45 9.10373 20 9.10373C20.5667 9.10373 21.0417 9.2954 21.425 9.67873C21.8083 10.0621 22 10.5371 22 11.1037C22 11.6537 21.8083 12.1246 21.425 12.5162C21.0417 12.9079 20.5667 13.1037 20 13.1037ZM12 12.1037C11.1667 12.1037 10.4583 11.8121 9.875 11.2287C9.29167 10.6454 9 9.93706 9 9.10373C9 8.25373 9.29167 7.54123 9.875 6.96623C10.4583 6.39123 11.1667 6.10373 12 6.10373C12.85 6.10373 13.5625 6.39123 14.1375 6.96623C14.7125 7.54123 15 8.25373 15 9.10373C15 9.93706 14.7125 10.6454 14.1375 11.2287C13.5625 11.8121 12.85 12.1037 12 12.1037ZM12 10.1037C12.2833 10.1037 12.5208 10.0079 12.7125 9.81623C12.9042 9.62456 13 9.38706 13 9.10373C13 8.8204 12.9042 8.5829 12.7125 8.39123C12.5208 8.19956 12.2833 8.10373 12 8.10373C11.7167 8.10373 11.4792 8.19956 11.2875 8.39123C11.0958 8.5829 11 8.8204 11 9.10373C11 9.38706 11.0958 9.62456 11.2875 9.81623C11.4792 10.0079 11.7167 10.1037 12 10.1037Z" fill="#344563"/>
</g>
</svg>
