<svg width="16" height="16" viewBox="0 0 16 16" fill="none" xmlns="http://www.w3.org/2000/svg">
<g clip-path="url(#clip0_842_856)">
<rect width="16" height="16" fill="white" fill-opacity="0.01"/>
<path fill-rule="evenodd" clip-rule="evenodd" d="M14 0C15.1046 0 16 0.89543 16 2V14C16 15.1046 15.1046 16 14 16H2C0.89543 16 0 15.1046 0 14V2C0 0.89543 0.89543 0 2 0H14ZM8.5 3C8.35 3 8.22 3.069 8.128 3.173L4.149 8.145C4.146 8.148 4.113 8.19 4.113 8.19C4.047 8.279 4 8.382 4 8.5C4 8.776 4.224 9 4.5 9C4.528 9 4.551 9.005 4.577 9H7V12.5C7 12.776 7.224 13 7.5 13C7.624 13 7.734 12.95 7.821 12.876C7.821 12.876 7.883 12.809 7.906 12.776L11.84 7.863C11.859 7.845 11.871 7.824 11.887 7.803L11.914 7.77C11.963 7.689 12 7.6 12 7.5C12 7.224 11.776 7 11.5 7H9V3.5C9 3.224 8.776 3 8.5 3Z" fill="#622EFF"/>
</g>
<defs>
<clipPath id="clip0_842_856">
<rect width="16" height="16" fill="white"/>
</clipPath>
</defs>
</svg>
